<?xml version="1.0" encoding="UTF-8"?>
<svg width="62px" height="77px" viewBox="0 0 62 77" version="1.1" xmlns="http://www.w3.org/2000/svg" xmlns:xlink="http://www.w3.org/1999/xlink">
    <title>Logo (Light)</title>
    <g id="Website-Mock-up" stroke="none" stroke-width="1" fill="none" fill-rule="evenodd">
        <g id="Home" transform="translate(-35.000000, -28.000000)" fill="#FFFFFF" fill-rule="nonzero">
            <g id="Logo-(Light)" transform="translate(35.036364, 28.272727)">
                <g id="MF-Copy-4" transform="translate(0.000000, -0.000000)">
                    <path d="M16.9454546,60.727273 L22.1818183,60.727273 L22.1818183,9.09090913 C22.1818183,7.87878754 22.3393944,6.90909094 22.6545455,6.1818182 C22.9696967,5.45454548 23.3575762,4.90909093 23.8181819,4.54545456 C24.2787876,4.1818182 24.7636365,3.9515148 25.2727274,3.85454547 C25.7818183,3.75757614 26.2060603,3.70909092 26.5454546,3.70909092 C27.6606058,3.70909092 28.6303035,4.21818183 29.4545456,5.23636366 C30.2787876,6.25454548 30.6909092,7.53939434 30.6909092,9.09090913 L30.6909092,65.0909093 C30.6909092,66.7393946 30.7393944,68.2424241 30.8363638,69.6000003 C30.9333331,70.9575764 31.2121217,72.1090912 31.6727274,73.0545457 C32.1333331,74 32.8484853,74.7393946 33.8181819,75.2727276 C34.7878785,75.8060605 36.1212126,76.0727276 37.818182,76.0727276 L38.9818183,76.0727276 L38.9818183,72.8000003 C38.3515149,72.8000003 37.842424,72.7030309 37.4545456,72.5090912 C37.0666672,72.3151514 36.7636365,71.927273 36.5454547,71.3454548 C36.3272729,70.7636366 36.1818183,69.951515 36.109091,68.9090912 C36.0363638,67.8666673 36,66.4727275 36,64.727273 L36,9.09090913 C36,6.27878753 35.1393944,4.06060571 33.4181819,2.43636365 C31.6969694,0.812121585 29.5272728,0 26.909091,0 C25.0181819,0 23.5272728,0.606060238 22.4363637,1.81818183 C21.3454546,3.03030341 20.4606058,4.43636365 19.7818183,6.03636366 C19.1030307,4.24242389 18.2424239,2.78787843 17.2000001,1.67272728 C16.1575762,0.55757613 14.8606057,0 13.309091,0 C11.709091,0 10.4121216,0.460605692 9.41818185,1.38181819 C8.42424209,2.30303068 7.66060572,3.39393978 7.12727275,4.65454547 C6.59393979,3.15151479 5.85454548,2.07272728 4.90909093,1.41818182 C3.96363638,0.763636367 2.78787843,0.436363638 1.38181819,0.436363638 L0,0.436363638 L0,3.70909092 C0.581818184,3.70909092 1.07878751,3.75757614 1.4909091,3.85454547 C1.90303068,3.9515148 2.23030341,4.1818182 2.47272728,4.54545456 C2.71515116,4.90909093 2.88484887,5.41818184 2.98181819,6.0727273 C3.07878752,6.72727275 3.12727274,7.61212161 3.12727274,8.72727276 L3.12727274,60.727273 L8.43636367,60.727273 L8.43636367,9.09090913 C8.43636367,7.87878754 8.5939398,6.90909094 8.90909094,6.1818182 C9.22424209,5.45454548 9.60000004,4.90909093 10.0363637,4.54545456 C10.4727273,4.1818182 10.933333,3.9515148 11.4181819,3.85454547 C11.9030307,3.75757614 12.3151512,3.70909092 12.6545455,3.70909092 C13.9151512,3.70909092 14.9454546,4.23030342 15.7454546,5.27272729 C16.5454546,6.31515117 16.9454546,7.58787845 16.9454546,9.09090913 L16.9454546,60.727273 Z" id="Path"></path>
                    <path d="M45.4545456,18.2545455 L45.4545456,67.927273 C45.4545456,69.6727275 45.3575763,70.9212128 45.1636365,71.6727275 C44.9696968,72.4242423 44.2666672,72.8242423 43.0545456,72.8727275 L43.0545456,76.1454548 C44.0242422,76.1454548 44.9818184,76.0363639 45.9272729,75.8181821 C46.8727274,75.6000003 47.7090911,75.2242423 48.4363638,74.6909094 C49.1636365,74.1575764 49.7454547,73.4060605 50.1818184,72.4363636 C50.618182,71.4666673 50.8363638,70.2060605 50.8363638,68.6545457 L50.8363638,28.9454547 L60.727273,28.9454547 L60.727273,25.7454546 L50.8363638,25.7454546 L50.8363638,18.2545455 C50.8363638,16.3151512 50.9212127,14.4606057 51.0909093,12.6909091 C51.2606059,10.9212125 51.6727275,9.36969663 52.3272729,8.03636367 C52.9818184,6.7030307 53.951515,5.64848524 55.2363638,4.87272729 C56.5212127,4.09696934 58.2787877,3.70909092 60.5090911,3.70909092 L61.4545457,3.70909092 L61.4545457,0.436363638 L58.9090911,0.436363638 C56.0000002,0.436363638 53.6727275,1.04242388 51.9272729,2.25454546 C50.1818184,3.46666705 48.8242422,4.96969662 47.8545456,6.76363639 C46.884849,8.55757616 46.242424,10.4848489 45.9272729,12.5454546 C45.6121218,14.6060603 45.4545456,16.509091 45.4545456,18.2545455 Z" id="Path"></path>
                </g>
            </g>
        </g>
    </g>
</svg>